<?xml version="1.0" encoding="UTF-8"?>
<svg xmlns="http://www.w3.org/2000/svg" version="1.1" viewBox="0 0 1280 720">
  <defs>
    <style>
      .cls-1 {
        fill: none;
      }

      .cls-1, .cls-2 {
        fill-rule: evenodd;
      }
    </style>
  </defs>
  <!-- Generator: Adobe Illustrator 28.7.1, SVG Export Plug-In . SVG Version: 1.2.0 Build 142)  -->
  <g>
    <g id="Layer_1">
      <path class="cls-1" d="M672,542c1.58,1.22.81,1.61,2,0h-2ZM527,257v2h1c-.65-1.73-.2-.98-1-2ZM533,187v2h1c-.65-1.73-.2-.98-1-2Z"/>
      <path class="cls-2" d="M1198,272c-5.67,6.33-11.33,12.67-17,19-1.67,1-3.33,2-5,3-2.1,2.86-2.22,5.94-5,8-5.62,4.15-12.46,10.67-19,13-5.57,1.99-16.49,1.23-21,4h-1c1.26-9.4,5.27-20.44,10-27,1.99-2.76,6.24-5.03,8-8,1.7-2.87-.53-7.38,1-11,3.32-7.87,13.04-17.69,22-20,.67-5,1.33-10,2-15,.52-1.06,3.48-1.21,4-2,2.28-3.44.84-8.92,3-12-1.16-9.61-8.57-6.02-15-10-5.65-3.5-10.51-9.6-16-13-3.67-1.33-7.33-2.67-11-4-4-2.41-9-6.69-14-8-4.14-1.09-4.55,1.89-8,0-6.21-3.41-10.27-11.1-17-14-6.43-2.77-13.49-2.32-19-6-6.89-4.6-12.87-12.37-20-17-12.59-8.17-28.25-10.27-40-19-3.14-2.33-4.25-7.24-7-10v-2h-1c.74,8.18,4.17,12.58,6,19,.33,6,.67,12,1,18,1.4,5.89,4.62,10.5,6,16h-1c-2.44-6.74-7.73-12.66-10-20-3.02-9.78-2.25-19.18-6-28-4.02-9.44-13.83-13.65-14-27-13.74-2.06-21.05-10.02-31-15-3-.33-6-.67-9-1-18.03-4.89-53.62-9.14-65,8h-1v1c12.67-1.74,32.99-5.59,44,2,8.04,6.28,9.84,31.25,4,38v2c7.64-3.83,18.65-14.11,20-24h1c-2.82,20.77-27.89,36.35-42,47-4.01,3.02-10.84,9.34-13,14-.67,3-1.33,6-2,9-1.47,2.8-20.65,20.49-24,23-7.98,5.96-16.57,14.3-25,19-8.23,4.58-20.48,3.84-27,10-9.04-1.17-9.27-13.37-14-19-1.86-2.22-5.94-2.92-8-5-2.31.33-2.48.46-4,1,1.03,1.5,1.48,1.98,3,3-.23,2.32-.2,2.82-1,4-1.83,3.98-29.09,9.02-37,8-3.43-.44-5.07-3.15-9-1-10.65-1.12-10.02-10.55-16-16v-1h-2c.93,1.77,1.76,6.09,3,8v1h-2v-1h-1c-.33-4.67-.67-9.33-1-14,.59-2.01,5.8-7.97,5-10-1.67-1-3.33-2-5-3-2.7-3.69-4.98-9.14-7-13,.8-2.49-2.82-8.3-4-12-1-5.67-2-11.33-3-17-2.79-6.24-9.35-11.35-13-17h-2c7.37,12.48,10.16,20.08,7,38-.33,8-.67,16-1,24-.94,2.16-5.02,4.26-6,7v6s-10.95,8.97-11,9c.62,4.14,1.03,4.39,4,6-.02,2.73-.04,4.58-1,6v2c-10.97.48-51.39,7.19-58,0-3.38,1.07-4.46,2.15-6,5-1.66,3.28,1.29,10.4,1,14-.86,10.65-8.77,22.19-16,27,1.37,5.88,5.3,4.25,8,8,2.66,3.69.87,8.57,3,13,2.41,5,8.87,7.53,13,11h3c-2.3-3.21-4.4-7.69-7-11,.35-8.39,3.6-6.61,5-11-.67-3.67-1.33-7.33-2-11,.77-2.82,9.75-12.45,12-16h2c-3.55,5.44-9.3,12.18-10,20,14.58-3.69,31.69-6.53,48-6-.7,5.8-3.07,8.55-7,11,1.76,4.88,7.35,6.19,9,11,3.17,9.26-3.44,12.92-1,21,6.71,22.2,5.22,55.84,5,85-5.17-7-9.8-15.26-17-20-5.98-3.93-14.69-3.07-21-7-5.3-3.3-13.22-16.27-26-11-1.11.46-2.57,3.47-4,4-6.11,2.27-10.76.85-17,3-2.06.71-5.4,3.33-8,4-8.16,2.09-18.71-2.8-25,2-3.39,1.54-9.93,18.92-13,23-2.67,2.33-5.33,4.67-8,7-2.17,2.97-2.83,6.08-5,9-4.33,3.67-8.67,7.33-13,11-1.16,1.39-1.61,3.94-3,5-5.8,4.41-15.95,7.27-21,12h-2c5.94,5.64,23.11,3.52,28-3h1c-4.41,6.58-12.64,5.4-19,10-25.14-.92-42.37-50.38-55-68h-3c.21-6.89-.55-6.56-1-13-5.48.29-15.41,3.03-20,0h-2c3.21-1.76,6.06,1.19,11,0,4.66-1.12,21.6-8.33,25-11,5.64-4.42,6.03-19.13,13-24v-1h-2c-7.69,8.71-14.83,27.13-32,20-12.01-.69-9.95-9.87-27-10v-1c9.35-4.13,20.19-.8,32-2v-3c-2.4-.94-5.03-1.96-7-3,.06-4.13.3-7.2,0-9,10.45-6.61,14.92-18.37,24-26,6.96-5.85,15.87-10.44,21-18,7.19-10.59,9.72-23.63,20-31v-2c2.16,3.77-.9,7.5,2,11v2c3.08-3.72,3.17-5.73,9-7,2.11,2.09,7.56,6.85,10,8h6c3.5,1.7,11.37,10.17,16,13,.65,1.73.2.98,1,2,1.28-5.11,1.25-6.29,1-13,1.72,2.41,3.35,10.12,2,15-1.42,5.12-5.46,5.61-8,9-2.14,2.86-1.41,6.48-3,10-1.53,3.38-6.24,9.38-9,12-7.18,5.37-30.84,6.56-36-1h-1c1.95,5.54,18.03,14.45,26,13,5.28-.96,19.58-5.44,23-4,6.42-1.51,10.42-12.23,14-17,7.25-9.66,18.52-17.75,30-21,2.75-9.99,4.91-20.74,9-30,.99-2.25,4.23-4.81,5-7,1.12-3.2.1-11.34-1-13v-2h-3c-1.74,1.39.14,4.82-1,7-1.79,3.42-6.94,4.42-9,8-5.56.48-9.21,3.05-14,2-1.97-.43-24.78-10.79-26-12-1.66-1.65-1.35-5.33-3-7l-6-3c-5.52-6.54-7.67-15.34-13-22-3.53-4.42-10.08.76-12-8h-1v1h-1c-.71,10.31,3.37,16.83,8,24-12.7-8.24-15.36-37.96-8-52,1.26-2.41,5.18-3.1,7-5,3.46-3.6,4.53-9.43,8-13v-2c-3.27,2.14-5.02,5.79-8,8-3.45,2.56-7.47,3.44-11,6-2.33,3-4.67,6-7,9-1.24,1.03-3.17.64-4,2-1.62,2.66-.72,5.11-2,8-1.28,2.9-4.45,5.49-6,8-3.84,6.22-5.01,12.92-9,19-4.3,6.55-12.95,9.67-17,16-5.73,8.96-9.85,19.4-17,27v2c7.44-2.59,17.88-11.67,22-18h1c-11.23,18.97-32.74,27.06-50,40-8.43,6.32-14.45,23.98-21,33-1.61,2.21-27.26,21.93-30,23-5.91,2.3-12.07,1.75-17,5-4.58,3.85-1.16,12.33-4,19-2.8,6.59-9.02,14.23-12,21-2.47,5.61-1.81,13.76-5,19,.23,2.32.2,2.82,1,4,3.6-.84,5.63-10.99,10-14,11.35-7.81,26.95-16.14,44-15-4.06,3.13-11.47,2.3-16,5-4.42,2.63-7,8.04-11,11-4.96,3.68-10.97,5.29-16,9-4.53,3.34-4.77,10.28-8,15-4.33,4-8.67,8-13,12-.33,1-.67,2-1,3-2,.67-4,1.33-6,2-12.02,7.43-29.84,11.28-41,20-4.48-.36-4.23.16-5-4-15.41,9.83-13.14,19.89-4,33-7.99-4.12-16.05-16.77-12-32,1.16-4.37,6.46-11.15,3-17-.77-15.8-20.4-20.64-29-30-6.39-6.96-9.38-16.24-15-24-1.37-1.89-4.5-2.33-6-4-4.1-4.58-8.14-19.89-12-26-3.42-5.41-8.78-8.91-11-16,2.3-1.79,5.6-3.1,8-5h2c-7.13-5.58-24.74.3-30,4-2.9,2.04-3.69,7.31-6,10v2h-1c.72-9.2,16.35-23.56,23-26h8c5.92-1.96,12.26-7.49,18-10,11.23-4.9,26.75-8.32,38-12,10.75-3.52,23.92-3.04,30-11,.64-1.49,1.24-.43,0-2,1.62-6.16,5.91-6.17,11-9,4.85-2.7,7.49-10.42,12-13,9.12-5.22,39.88.13,48,5,3.92,2.35,6.43,6.4,10,9,.75,9.86-2.29,19.9-9,25v2c5.27-1.85,9.53-8.14,13-12,6.31-8.08,2.62-27.5-2-34-3.25-4.57-14.89-10.71-21-12-3.82-.8-4.6,1.44-9,0-9.55-3.12-20.57-11.34-25-20-12.33.17-13.28,4.65-21,8-6.88,2.99-13.18,2.47-21,5-3.25,1.05-5.49,4.83-8,6-1.54.72-10.82,2.66-12,3-12.26,3.58-14.99-6.82-27,3-2.85-.11-4.28-.4-6-1-.1-19.8,18.66-32.34,39-32-11.61-8.06-44.44,7.25-50,13h-1c12.92-19.99,45.27-20.51,68-31,8.77-4.05,13.3-13.83,24-17-.33-1.67-.67-3.33-1-5,6.66-3.38,12.94-7.89,21-10,5.75-1.51,15.27,1.49,19,0,5.75-2.3,13.47-8.9,18-13v-1h1c-3.36,9.82-15.47,12.95-18,22-2.72,9.72,8.43,10.6,14,13,6.49,2.8,14.95,10.5,19,16,7,.33,14,.67,21,1,4.77,1.18,12.29,5.67,19,4,12.46-3.09,27.59-9.36,38-15,.92-1.08-.08-.09,1-1v-1c-6.75.75-13.15,3.44-20,5-19.51,4.44-50.35-9.88-54-21-2.34-7.11,0-21.43,2-26,2.35-5.36,8.09-9.05,12-13,3.67-4.67,7.33-9.33,11-14,5.26-3.95,11.16-5.37,17-9,3.75-2.33,7.38-6.64,11-9,8.8-5.74,22.85-6.74,30,1h1v-2c-6.08-4-10.51-8.91-19-11-14.67.33-29.33.67-44,1-6.45-1.4-17.31-4.88-25-3-7.97,1.95-14.29,7.07-21,10-18.01,7.88-36.47,16.71-54,24-4.33,1-8.67,2-13,3-9.98,3.67-21.55,8.1-31,12-5.62,2.32-11.84,2.37-16,6h-2c3.05,1.9,8.6.03,13,1,20.11,4.43,39.78-1.7,57-4v1c-10.46,2.49-24.3,4.41-36,7-10.3,2.28-23.93-.95-33,1-3.13.67-7.44-.72-9-1-8.67,1-17.33,2-26,3-2.76,1.27-5.4,5.36-8,7-9.97,6.32-20.74,9.64-31,16-4.67,3.67-9.33,7.33-14,11v2c4.26-1.01,20.98-.79,24-4,4.81.95,7.32,3.84,11,6,2.1,8.8,3.24,12.3,3,23-6.07,5.7-6.62,10.68-11,18-4.68,7.82-12.77,13.88-18,21-4.33,8-8.67,16-13,24-7.14,9.81-19.57,13.37-29,21h-2v-1c6.48-1.84,23.6-15.55,27-21,2.29-3.67,2.46-8.65,5-12v-5h-1c-4.38,14.01-18.3,20.76-32,25h-6c-6.16,2.67-11.57,11.26-17,15-3.8,2.62-9.04-.33-14,2-4,5.33-8,10.67-12,16v3c2.72.55,3.76,1.4,6,0,15.13,1.05,13.71,14.43,22,20,5.73,3.85,11.47,6.27,15,12,1.5,2.43.87,5.41,3,7,2,.33,4,.67,6,1v1c2.29,1.96,10.53,10.69,12,13,.67,3,1.33,6,2,9,4.88,8.72,16.1,14.14,22,22,3.45,4.6,7.06,14.19,12,17,4.66,2.65,10.06,1.83,15,4,14.62,6.43,28.78,20.31,33,37h-1c-2.35-8.57-10.13-18.71-17-23-6.45-4.03-13.85-4.87-19-10h-1c1.24,4.47,3.78,8.54,5,13v7c1.02,1.97,3.12.74,5,2,1.63,1.09,4.02,5.36,5,7,9.8,16.44,20.79,41.15,27,60,.33,3.33.67,6.67,1,10,1.82,6.76,8.82,18.44,6,28-1.07,3.62-5.2,8.19-6,12-.91,4.32,2.25,6.6,3,9,2.52,8.07,1.44,21.61-2,27-2,1.67-4,3.33-6,5-4,5.42-6.07,11.51-10,17-1.38,1.93-17.4,9.88-20,11-8.24,3.55-19.85.71-26,6h-1v1c12-.67,24-1.33,36-2,11.57-3.2,21.5-11.65,31-17,2.27-1.28,6.91-.69,9-2,4.02-2.5,8.92-12.79,12-17,4.67-4,9.33-8,14-12,6.35-8.74,9.46-19.44,16-28,2-1.33,4-2.67,6-4,3.67-4.33,7.33-8.67,11-13,1.33-.67,2.67-1.33,4-2,2.13-3.63-.08-5.65,3-8,2.51-1.92,5.43-2.15,8-4,6.27-4.51,11.27-13.21,19-16,13.92-5.02,30.62-4.43,42-12,14.6-9.71,21.5-28.42,43-31v-1c-27.71.44-33.4,19.05-55,25-11.76,3.24-20.94-4.34-33-1-8.04,2.23-12.85,8.19-19,12-5.33,2-10.67,4-16,6h-3c2.86-2.25,7.87-1.91,11-4,1.67-2,3.33-4,5-6,3.19-2.31,6.69-2.73,10-5,1.33-1.67,2.67-3.33,4-5,3.33-.67,6.67-1.33,10-2,2.53-.98,11.78-6.05,15-8,4.75-2.87,6.76-8.91,11-12,2.67-1,5.33-2,8-3,2-2.67,4-5.33,6-8,5.97-3.96,22.83-7.77,30-11,1.79-1.42,11.47,5.85,15,7,3.33.33,6.67.67,10,1,8.16,2.47,25.04,19.27,29,26,2.32,3.95,1.45,9.41,4,13,6.03,8.46,17.81,6.65,19,21h1v-1c4.62-3.18,4.98-9.29,7-15,.67-.33,1.33-.67,2-1v1h1c-.19,3.35-.53,6.01-2,8,.65,9.36,8.46,7.88,14,12,1.67,2.33,3.33,4.67,5,7,11.86,8.96,25.2,10.23,34,23,13.87.18,28.1,2.58,36-5h2v-1c-8.02.81-13.17,4.79-23,2-5.81-1.65-14.39-6.96-17-12v-4c-4.78-8.44-19.25-12.12-17-25,1.17-6.73-1.27-13.81,2-18v-2h1c-1.61,7.08-2.89,20.87,2,27,2.14.77,3.67-2.77,7-1v2c1.41,1.23,3.61,1.75,5,3h4c1.67-7.59,3.22-16.47,6-23,2.13-.8,2.16.14,4-1,4.88-2.42,14.9-22.58,19-28,5.15-6.81,13.03-9.89,20-15,3-3.67,6-7.33,9-11,4.71-3.43,12.12-4.75,16-9,1-2.67,2-5.33,3-8,2.67-2.33,5.33-4.67,8-7,2.73-4.05,2.82-9.54,6-13v-2c-3.26,2.27-3.29,5-8,6v4c-3.53,1.74-9.54,4-12,7-2.67-.67-5.33-1.33-8-2,2-10.49,16.94-32.91,26-36-5.11,5.46-8.8,12.55-14,18v3c3.32-2.21,5.68-5.92,9-8,6.21-3.9,15.73-5.2,20-11,4.32,1.35,7.57,4.78,12,6h11c11.1,2.82,24.38,7.61,30,16,6.13,9.16.31,25.1,2,33,1.41,6.57,4.47,17.05,6,23,2.17,8.44-1.16,20.1,0,26,1.4,7.13-5.86,15.61-2,24,2.07,4.5,14.87,20.07,15,21-4.51,17.34-11.57,17.29-22,27-10.37.33-15.94-1.81-20-6h-1c1.37,4.13,4.78,6.8,9,8,17.38,12.26,39.08-14.34,50-19,4.05-15.77,5.24-42.41,15-53v-3c-5.12,2.25-11.05,3.42-13,9h-1c2.47-10.35,13.55-13.97,24-13,1.67-3.67,3.33-7.33,5-11,1.61-2.64-3.15-8.7-4-12-1.22-4.72,1.51-12.13,2-16,.58-4.53-3.26-6.46-2-12,.54-2.38,2.78-5.03,2-9-.42-2.15-2.44-7.25-2-10,.26-1.62,2.82-6.75,2-9-1.33-1-2.67-2-4-3-2.83-5.02-6.55-14.54-8-20v-12c-.01-12.5,1.28-20.45-1-31-2.06-9.55,4.6-26.55,3-32-.43-1.47-3.55-2.89-4-4-2.48-6.07,3.56-14.17,0-20,1.16-2.22,1.45-1.5,3-3,.85-2.21.78-1.12-1-3v-1c24.2-5.27,48.76-5.28,67,7,3.78,2.54,5.87,7.72,9,11v2h-1c-3.67-7.16-10.45-7.94-16-13h-1c1.02,6.16,4.38,8.77,6,14,2.27,5.1-6.47,14.83-9,19-2.52,4.16-.24,7.94-1,12-1.88,10.02-18.54,30.28-31,19h-2c4.89,7.46,14.17,7.09,25,6,4.41-4.38,11.52-7.87,15-13,2.34-3.45,1.93-7.14,4-11,1.8-3.36,5.88-5.73,8-9h2c-4.05,6.75-8.52,27.13-2,35v1h1c2.58-5.79,4.2-9.8,8-14,8.32,1.18,13.81,4.96,20,8,3.04,11.03,16.9,43.77,7,58,5.68,8.5,17.43,16.61,28,23,1.28,6.61.09,12.88,0,21,9.12,1.06,7.91,12.98,12,19,2.09,3.08,6.3,5.31,8,9,6.83,14.82,8.74,34.5,19,46v1c2.87-1.61,3.81-6.97,5-10,6.75,1.33,4.88,5.81,9,9,4.03,3.12,10.57,3.36,14,7,3.26,3.45,14.66,29.26,15,36h1c3.16-8.2,10.74-21.29,8-33-.94-4.04-2.65-7.47-3-13,8.61,12.07,5.91,43.42-1,57-.82,1.62-3.36,3.52-4,6v15c-2.54,10.91-7.33,25.69-13,34-3.5,5.13-11.43,5.9-16,10h-1v1c10.69.16,21.04-2.38,26-8,2.4-2.72,2.57-7.35,5-10,2.44-2.66,11.76-8.38,13-10,.67-4,1.33-8,2-12,2.47-4.49,6.12-5.62,7-13h3c5.67-12.4,10.3-25.32,18-36,2-1.33,4-2.67,6-4,1.19-2.48-1.06-5.87-1-7,.46-8.25,13.43-32.47,20-35-2.67-8.71-12.78-17.98-16-28-4.69-14.6-3.26-47.47-3-66,2.2,3.46-.08,10.1,1,15,2.29,10.41,3.02,33.98,8,42,2.27,1.04,1.6.16,4-1,2.31,3.3,6.97,4.77,9,8,1.44,2.29.12,4.84,1,8,3.96,14.18,10.02,35.47,0,49v2c4.45-2.99,10.39-11.58,12-17v-13c1.36-5.42,5.86-13.32,4-21-.67-2.76-6.08-19.47-5-22,2.7-6.33,9.78-12.71,12-19,3.81-10.77,3.95-21.78,11-29,1.46-1,5.63-.73,7-2,.67-2,1.33-4,2-6,2.67-2,5.33-4,8-6,7.08-9.23,13.12-17.6,20-27,1.34-1.82,4.63-2.35,6-4,2.85-3.41,3.39-7.45,7-10,4.49-3.18,7.72-7.19,12-10,11.35-7.45,25.15-10.2,33-21,8.16-11.22,13.17-23.32,21-35,1.37-2.05,4.63-3.82,6-6,4.66-7.44,7.12-16.77,13-23v-1c-6.56,2.41-9.2,9.72-13,15ZM568,257c.81,1.03.37.25,1,2h-1v-2ZM729,441c-2.85,11.99-6.88,29.5-4,43v27c.82,3.32,4.32,9.13,3,14-.04.16-1.81,2.75-2,3v1s-2.79-12.46-3-14h-1c-.63,2.23-.74,2.64-2,4v1c-8.32-3.03-11.55-19.81-9-30,.47-1.88,3.43-5.87,4-8v-12c1.42-6.06,1.65-13.24,4-20,1.52-4.39,5.7-6.77,7-12,2.4-9.67-.29-24.25-2-32v-46c4.69,7.47-.17,21.18,2,31,1.62,7.34-1.23,19.55,1,28,1.19,4.51,3.75,14.65,2,22ZM870,241c-2.22,3.33-6.25,5.81-8,10-1,3.67-2,7.33-3,11-2.12,3.51-6.88,5.72-9,9-3.92,6.06-3.53,10.53-10,14v1c-5.77-7.72-6.57-19.19-12-27v-2c3.53.45,11.62,2.51,13,4,6.18-1.23,5.42-4.68,9-8,13.13-12.16,25.33-27.62,35-43,2.27,2.3-8.3,14.19-10,17-1.67,4.67-3.33,9.33-5,14ZM973,508c.76,1.08.63.92,1,3-.76-1.08-.63-.92-1-3ZM1060,306c-9.24,13.04-14.22,29.7-27,39-5.07,3.69-10.82,5.38-16,9-4.03,2.81-8,8.48-12,11h-6c-1.47.66-4.71,4.7-6,6-3.33,4.38-2.2,32.02-1,37-4.43,7.08-6.83,15.63-9,23h-2c-9.82-14.97-16.45-32.78-29-45v-1h-1c-.13,15.22-3.31,24.62-6,36-3.33,14.1-.12,28.27,0,43-4.47-6.89-4.63-57.31,0-64v-20c-.67-1.37-2.8-1.04-4-2-3.77-3.03-8-9.42-10-14-5.52-12.63-7.26-25-13-38-2.91-6.58-11.92-11.89-16-18-5.39-8.08-10.84-17.68-15-26l-3-9v-12c2.9,4.51,1.43,12.74,4,17,3.72,6.17,11.68,11.23,14,18,1.31-.51,3.94-1.22,5-2,4.31-1.77,14.38-22.13,18-27,4.64-6.24,10.7-12.26,14-20,.67-3,1.33-6,2-9,2-1.67,4-3.33,6-5,4.46-6.55,9.2-12.51,13-19,5.13-8.75,5.37-18.91,9-29,2.53-7.03,8.81-12.44,12-19,1.1,1.65-.1,4.64,1,7,1.8,3.86,7.06,8.43,9,13,1.91,4.48,1.43,9.16,4,13,2.08,3.12,6.98,4.68,10,7,2.58,1.98,3.03,5.32,5,8,4.38,5.95,10.76,6.23,13,15,13.96,3.49,27.01,5.71,37,13,2.33,3,4.67,6,7,9v1c5.17-6.7-2.93-31.81-7-36v-2h1c3.2,9.8,10.08,19.27,13,30v12c5.78,25.45-3.64,35.38-14,50Z"/>
    </g>
  </g>
</svg>